<mxfile host="app.diagrams.net" modified="2021-07-19T22:37:12.509Z" agent="5.0 (Windows NT 10.0; Win64; x64) AppleWebKit/537.36 (KHTML, like Gecko) Chrome/91.0.4472.124 Safari/537.36 Edg/91.0.864.70" etag="t8qESvZpBtCmIF15F78E" version="14.8.6" type="github">
  <diagram id="RJxsOXgO0sxVtNs_DjP9" name="Page-1">
    <mxGraphModel dx="3122" dy="1894" grid="0" gridSize="10" guides="0" tooltips="1" connect="1" arrows="1" fold="1" page="1" pageScale="1" pageWidth="850" pageHeight="1100" math="0" shadow="0">
      <root>
        <mxCell id="0" />
        <mxCell id="1" parent="0" />
        <mxCell id="1wuUmruYXVWHmOODGOpv-1" value="ctr_cierre_generico" style="rounded=1;whiteSpace=wrap;html=1;" parent="1" vertex="1">
          <mxGeometry x="430" y="20" width="200" height="25" as="geometry" />
        </mxCell>
        <mxCell id="1wuUmruYXVWHmOODGOpv-2" value="dwh_dmatrizcampana" style="rounded=1;whiteSpace=wrap;html=1;" parent="1" vertex="1">
          <mxGeometry x="430" y="90" width="200" height="25" as="geometry" />
        </mxCell>
        <mxCell id="1wuUmruYXVWHmOODGOpv-3" value="dwh_dproducto" style="rounded=1;whiteSpace=wrap;html=1;" parent="1" vertex="1">
          <mxGeometry x="432" y="1213" width="200" height="25" as="geometry" />
        </mxCell>
        <mxCell id="1wuUmruYXVWHmOODGOpv-4" value="dwh_dtipooferta" style="rounded=1;whiteSpace=wrap;html=1;" parent="1" vertex="1">
          <mxGeometry x="430" y="150" width="200" height="25" as="geometry" />
        </mxCell>
        <mxCell id="1wuUmruYXVWHmOODGOpv-5" value="dwh_faltante_virtual" style="rounded=1;whiteSpace=wrap;html=1;" parent="1" vertex="1">
          <mxGeometry x="442" y="2595" width="200" height="25" as="geometry" />
        </mxCell>
        <mxCell id="1wuUmruYXVWHmOODGOpv-6" value="dwh_fcobconsultora" style="rounded=1;whiteSpace=wrap;html=1;" parent="1" vertex="1">
          <mxGeometry x="442" y="2695" width="200" height="25" as="geometry" />
        </mxCell>
        <mxCell id="1wuUmruYXVWHmOODGOpv-8" value="dwh_fcobgypreal" style="rounded=1;whiteSpace=wrap;html=1;" parent="1" vertex="1">
          <mxGeometry x="442" y="2785" width="200" height="25" as="geometry" />
        </mxCell>
        <mxCell id="1wuUmruYXVWHmOODGOpv-9" value="dwh_fcobgypproyeccion" style="rounded=1;whiteSpace=wrap;html=1;" parent="1" vertex="1">
          <mxGeometry x="442" y="3035.5" width="200" height="25" as="geometry" />
        </mxCell>
        <mxCell id="1wuUmruYXVWHmOODGOpv-114" style="edgeStyle=none;rounded=0;orthogonalLoop=1;jettySize=auto;html=1;entryX=0;entryY=0.5;entryDx=0;entryDy=0;fontSize=12;exitX=1;exitY=0.75;exitDx=0;exitDy=0;" parent="1" source="1wuUmruYXVWHmOODGOpv-10" target="1wuUmruYXVWHmOODGOpv-12" edge="1">
          <mxGeometry relative="1" as="geometry" />
        </mxCell>
        <mxCell id="1wuUmruYXVWHmOODGOpv-10" value="dwh_fcobmusthaveproyectado" style="rounded=1;whiteSpace=wrap;html=1;" parent="1" vertex="1">
          <mxGeometry x="442" y="2838" width="200" height="25" as="geometry" />
        </mxCell>
        <mxCell id="1wuUmruYXVWHmOODGOpv-12" value="dwh_fcobproyecciontccampana" style="rounded=1;whiteSpace=wrap;html=1;" parent="1" vertex="1">
          <mxGeometry x="722" y="2863" width="200" height="25" as="geometry" />
        </mxCell>
        <mxCell id="1wuUmruYXVWHmOODGOpv-13" value="dwh_fcobsaprecaudo" style="rounded=1;whiteSpace=wrap;html=1;" parent="1" vertex="1">
          <mxGeometry x="442" y="2935.5" width="200" height="25" as="geometry" />
        </mxCell>
        <mxCell id="1wuUmruYXVWHmOODGOpv-113" style="edgeStyle=none;rounded=0;orthogonalLoop=1;jettySize=auto;html=1;entryX=0;entryY=0.5;entryDx=0;entryDy=0;fontSize=12;exitX=1;exitY=0.5;exitDx=0;exitDy=0;" parent="1" source="1wuUmruYXVWHmOODGOpv-15" target="1wuUmruYXVWHmOODGOpv-12" edge="1">
          <mxGeometry relative="1" as="geometry" />
        </mxCell>
        <mxCell id="1wuUmruYXVWHmOODGOpv-15" value="dwh_fcobtcxcampana" style="rounded=1;whiteSpace=wrap;html=1;" parent="1" vertex="1">
          <mxGeometry x="442" y="2885.5" width="200" height="25" as="geometry" />
        </mxCell>
        <mxCell id="1wuUmruYXVWHmOODGOpv-17" value="dwh_fcobtcxmes" style="rounded=1;whiteSpace=wrap;html=1;" parent="1" vertex="1">
          <mxGeometry x="442" y="2985.5" width="200" height="25" as="geometry" />
        </mxCell>
        <mxCell id="1wuUmruYXVWHmOODGOpv-18" value="dwh_fcobtcxmesgypreal" style="rounded=1;whiteSpace=wrap;html=1;" parent="1" vertex="1">
          <mxGeometry x="442" y="3105" width="200" height="25" as="geometry" />
        </mxCell>
        <mxCell id="1wuUmruYXVWHmOODGOpv-19" value="dwh_fnumpedcam" style="rounded=1;whiteSpace=wrap;html=1;" parent="1" vertex="1">
          <mxGeometry x="430" y="210" width="200" height="25" as="geometry" />
        </mxCell>
        <mxCell id="1wuUmruYXVWHmOODGOpv-20" value="dwh_fstaebecam" style="rounded=1;whiteSpace=wrap;html=1;" parent="1" vertex="1">
          <mxGeometry x="430" y="260" width="200" height="25" as="geometry" />
        </mxCell>
        <mxCell id="1wuUmruYXVWHmOODGOpv-21" value="dwh_fvtaprocammes" style="rounded=1;whiteSpace=wrap;html=1;" parent="1" vertex="1">
          <mxGeometry x="430" y="300" width="200" height="25" as="geometry" />
        </mxCell>
        <mxCell id="1wuUmruYXVWHmOODGOpv-22" value="dwh_fvtaproebecam" style="rounded=1;whiteSpace=wrap;html=1;" parent="1" vertex="1">
          <mxGeometry x="430" y="345" width="200" height="25" as="geometry" />
        </mxCell>
        <mxCell id="1wuUmruYXVWHmOODGOpv-30" style="edgeStyle=orthogonalEdgeStyle;rounded=0;orthogonalLoop=1;jettySize=auto;html=1;entryX=0;entryY=0.5;entryDx=0;entryDy=0;" parent="1" source="1wuUmruYXVWHmOODGOpv-24" target="1wuUmruYXVWHmOODGOpv-1" edge="1">
          <mxGeometry relative="1" as="geometry" />
        </mxCell>
        <mxCell id="1wuUmruYXVWHmOODGOpv-24" value="dcontrol" style="rounded=1;whiteSpace=wrap;html=1;" parent="1" vertex="1">
          <mxGeometry x="180" width="200" height="25" as="geometry" />
        </mxCell>
        <mxCell id="1wuUmruYXVWHmOODGOpv-31" style="edgeStyle=orthogonalEdgeStyle;rounded=0;orthogonalLoop=1;jettySize=auto;html=1;entryX=0;entryY=0.5;entryDx=0;entryDy=0;" parent="1" source="1wuUmruYXVWHmOODGOpv-25" target="1wuUmruYXVWHmOODGOpv-1" edge="1">
          <mxGeometry relative="1" as="geometry">
            <mxPoint x="420" y="48" as="targetPoint" />
          </mxGeometry>
        </mxCell>
        <mxCell id="1wuUmruYXVWHmOODGOpv-25" value="dcampcer" style="rounded=1;whiteSpace=wrap;html=1;" parent="1" vertex="1">
          <mxGeometry x="180" y="35" width="200" height="25" as="geometry" />
        </mxCell>
        <mxCell id="1wuUmruYXVWHmOODGOpv-47" style="edgeStyle=none;rounded=0;orthogonalLoop=1;jettySize=auto;html=1;entryX=0;entryY=0.75;entryDx=0;entryDy=0;exitX=1;exitY=0.5;exitDx=0;exitDy=0;" parent="1" source="1wuUmruYXVWHmOODGOpv-26" target="1wuUmruYXVWHmOODGOpv-24" edge="1">
          <mxGeometry relative="1" as="geometry" />
        </mxCell>
        <mxCell id="1wuUmruYXVWHmOODGOpv-48" style="edgeStyle=none;rounded=0;orthogonalLoop=1;jettySize=auto;html=1;entryX=0;entryY=0.5;entryDx=0;entryDy=0;exitX=1;exitY=0.5;exitDx=0;exitDy=0;" parent="1" source="1wuUmruYXVWHmOODGOpv-26" target="1wuUmruYXVWHmOODGOpv-27" edge="1">
          <mxGeometry relative="1" as="geometry" />
        </mxCell>
        <mxCell id="1wuUmruYXVWHmOODGOpv-49" style="edgeStyle=none;rounded=0;orthogonalLoop=1;jettySize=auto;html=1;entryX=0;entryY=0.5;entryDx=0;entryDy=0;exitX=1;exitY=0.5;exitDx=0;exitDy=0;" parent="1" source="1wuUmruYXVWHmOODGOpv-26" target="1wuUmruYXVWHmOODGOpv-29" edge="1">
          <mxGeometry relative="1" as="geometry" />
        </mxCell>
        <mxCell id="1wuUmruYXVWHmOODGOpv-50" style="edgeStyle=none;rounded=0;orthogonalLoop=1;jettySize=auto;html=1;entryX=0;entryY=0.5;entryDx=0;entryDy=0;exitX=1;exitY=0.5;exitDx=0;exitDy=0;" parent="1" source="1wuUmruYXVWHmOODGOpv-26" target="1wuUmruYXVWHmOODGOpv-37" edge="1">
          <mxGeometry relative="1" as="geometry" />
        </mxCell>
        <mxCell id="1wuUmruYXVWHmOODGOpv-51" style="edgeStyle=none;rounded=0;orthogonalLoop=1;jettySize=auto;html=1;entryX=0;entryY=0.5;entryDx=0;entryDy=0;exitX=1;exitY=0.5;exitDx=0;exitDy=0;" parent="1" source="1wuUmruYXVWHmOODGOpv-26" target="1wuUmruYXVWHmOODGOpv-43" edge="1">
          <mxGeometry relative="1" as="geometry" />
        </mxCell>
        <mxCell id="1wuUmruYXVWHmOODGOpv-26" value="PLANIT" style="rounded=1;whiteSpace=wrap;html=1;" parent="1" vertex="1">
          <mxGeometry x="-241" y="108" width="200" height="55" as="geometry" />
        </mxCell>
        <mxCell id="1wuUmruYXVWHmOODGOpv-32" style="edgeStyle=orthogonalEdgeStyle;rounded=0;orthogonalLoop=1;jettySize=auto;html=1;entryX=0;entryY=0.5;entryDx=0;entryDy=0;" parent="1" source="1wuUmruYXVWHmOODGOpv-27" target="1wuUmruYXVWHmOODGOpv-2" edge="1">
          <mxGeometry relative="1" as="geometry" />
        </mxCell>
        <mxCell id="1wuUmruYXVWHmOODGOpv-27" value="dmtatrizcampana" style="rounded=1;whiteSpace=wrap;html=1;" parent="1" vertex="1">
          <mxGeometry x="180" y="75" width="200" height="25" as="geometry" />
        </mxCell>
        <mxCell id="1wuUmruYXVWHmOODGOpv-34" style="edgeStyle=orthogonalEdgeStyle;rounded=0;orthogonalLoop=1;jettySize=auto;html=1;entryX=0;entryY=0.5;entryDx=0;entryDy=0;" parent="1" source="1wuUmruYXVWHmOODGOpv-28" target="1wuUmruYXVWHmOODGOpv-2" edge="1">
          <mxGeometry relative="1" as="geometry" />
        </mxCell>
        <mxCell id="1wuUmruYXVWHmOODGOpv-28" value="dmtatrizcampana" style="rounded=1;whiteSpace=wrap;html=1;" parent="1" vertex="1">
          <mxGeometry x="180" y="110" width="200" height="25" as="geometry" />
        </mxCell>
        <mxCell id="1wuUmruYXVWHmOODGOpv-35" value="" style="edgeStyle=orthogonalEdgeStyle;rounded=0;orthogonalLoop=1;jettySize=auto;html=1;" parent="1" source="1wuUmruYXVWHmOODGOpv-29" target="1wuUmruYXVWHmOODGOpv-4" edge="1">
          <mxGeometry relative="1" as="geometry" />
        </mxCell>
        <mxCell id="1wuUmruYXVWHmOODGOpv-29" value="dtipooferta" style="rounded=1;whiteSpace=wrap;html=1;" parent="1" vertex="1">
          <mxGeometry x="180" y="150" width="200" height="25" as="geometry" />
        </mxCell>
        <mxCell id="1wuUmruYXVWHmOODGOpv-38" style="edgeStyle=orthogonalEdgeStyle;rounded=0;orthogonalLoop=1;jettySize=auto;html=1;entryX=0;entryY=0.5;entryDx=0;entryDy=0;" parent="1" source="1wuUmruYXVWHmOODGOpv-36" target="1wuUmruYXVWHmOODGOpv-19" edge="1">
          <mxGeometry relative="1" as="geometry" />
        </mxCell>
        <mxCell id="1wuUmruYXVWHmOODGOpv-36" value="fnumpedcam" style="rounded=1;whiteSpace=wrap;html=1;" parent="1" vertex="1">
          <mxGeometry x="180" y="190" width="200" height="25" as="geometry" />
        </mxCell>
        <mxCell id="1wuUmruYXVWHmOODGOpv-40" style="edgeStyle=orthogonalEdgeStyle;rounded=0;orthogonalLoop=1;jettySize=auto;html=1;entryX=0;entryY=0.5;entryDx=0;entryDy=0;" parent="1" source="1wuUmruYXVWHmOODGOpv-37" target="1wuUmruYXVWHmOODGOpv-19" edge="1">
          <mxGeometry relative="1" as="geometry" />
        </mxCell>
        <mxCell id="1wuUmruYXVWHmOODGOpv-37" value="fnumpedcam" style="rounded=1;whiteSpace=wrap;html=1;" parent="1" vertex="1">
          <mxGeometry x="180" y="225" width="200" height="25" as="geometry" />
        </mxCell>
        <mxCell id="1wuUmruYXVWHmOODGOpv-42" style="edgeStyle=orthogonalEdgeStyle;rounded=0;orthogonalLoop=1;jettySize=auto;html=1;entryX=0;entryY=0.5;entryDx=0;entryDy=0;" parent="1" source="1wuUmruYXVWHmOODGOpv-41" target="1wuUmruYXVWHmOODGOpv-20" edge="1">
          <mxGeometry relative="1" as="geometry" />
        </mxCell>
        <mxCell id="1wuUmruYXVWHmOODGOpv-41" value="fstaebecam" style="rounded=1;whiteSpace=wrap;html=1;" parent="1" vertex="1">
          <mxGeometry x="180" y="260" width="200" height="25" as="geometry" />
        </mxCell>
        <mxCell id="1wuUmruYXVWHmOODGOpv-44" style="edgeStyle=orthogonalEdgeStyle;rounded=0;orthogonalLoop=1;jettySize=auto;html=1;entryX=0;entryY=0.5;entryDx=0;entryDy=0;" parent="1" source="1wuUmruYXVWHmOODGOpv-43" target="1wuUmruYXVWHmOODGOpv-21" edge="1">
          <mxGeometry relative="1" as="geometry" />
        </mxCell>
        <mxCell id="1wuUmruYXVWHmOODGOpv-43" value="fvtaprocammes" style="rounded=1;whiteSpace=wrap;html=1;" parent="1" vertex="1">
          <mxGeometry x="180" y="300" width="200" height="25" as="geometry" />
        </mxCell>
        <mxCell id="1wuUmruYXVWHmOODGOpv-46" style="edgeStyle=orthogonalEdgeStyle;rounded=0;orthogonalLoop=1;jettySize=auto;html=1;entryX=0;entryY=0.5;entryDx=0;entryDy=0;" parent="1" source="1wuUmruYXVWHmOODGOpv-45" target="1wuUmruYXVWHmOODGOpv-22" edge="1">
          <mxGeometry relative="1" as="geometry" />
        </mxCell>
        <mxCell id="1wuUmruYXVWHmOODGOpv-45" value="fvtaproebecam" style="rounded=1;whiteSpace=wrap;html=1;" parent="1" vertex="1">
          <mxGeometry x="180" y="345" width="200" height="25" as="geometry" />
        </mxCell>
        <mxCell id="HZBKHrXU-gOTQcwhLFMI-15" style="rounded=0;orthogonalLoop=1;jettySize=auto;html=1;entryX=0;entryY=0.5;entryDx=0;entryDy=0;exitX=1;exitY=0.5;exitDx=0;exitDy=0;" edge="1" parent="1" source="1wuUmruYXVWHmOODGOpv-52" target="HZBKHrXU-gOTQcwhLFMI-14">
          <mxGeometry relative="1" as="geometry" />
        </mxCell>
        <mxCell id="HZBKHrXU-gOTQcwhLFMI-17" style="rounded=0;orthogonalLoop=1;jettySize=auto;html=1;entryX=0;entryY=0.5;entryDx=0;entryDy=0;exitX=1;exitY=0.5;exitDx=0;exitDy=0;" edge="1" parent="1" source="1wuUmruYXVWHmOODGOpv-52" target="HZBKHrXU-gOTQcwhLFMI-16">
          <mxGeometry relative="1" as="geometry" />
        </mxCell>
        <mxCell id="HZBKHrXU-gOTQcwhLFMI-20" style="rounded=0;orthogonalLoop=1;jettySize=auto;html=1;entryX=0;entryY=0.5;entryDx=0;entryDy=0;exitX=1;exitY=0.5;exitDx=0;exitDy=0;" edge="1" parent="1" source="1wuUmruYXVWHmOODGOpv-52" target="HZBKHrXU-gOTQcwhLFMI-18">
          <mxGeometry relative="1" as="geometry" />
        </mxCell>
        <mxCell id="HZBKHrXU-gOTQcwhLFMI-21" style="rounded=0;orthogonalLoop=1;jettySize=auto;html=1;entryX=0;entryY=0.5;entryDx=0;entryDy=0;exitX=1;exitY=0.5;exitDx=0;exitDy=0;" edge="1" parent="1" source="1wuUmruYXVWHmOODGOpv-52" target="HZBKHrXU-gOTQcwhLFMI-19">
          <mxGeometry relative="1" as="geometry" />
        </mxCell>
        <mxCell id="HZBKHrXU-gOTQcwhLFMI-23" style="rounded=0;orthogonalLoop=1;jettySize=auto;html=1;entryX=0;entryY=0.5;entryDx=0;entryDy=0;exitX=1;exitY=0.5;exitDx=0;exitDy=0;" edge="1" parent="1" source="1wuUmruYXVWHmOODGOpv-52" target="HZBKHrXU-gOTQcwhLFMI-22">
          <mxGeometry relative="1" as="geometry" />
        </mxCell>
        <mxCell id="HZBKHrXU-gOTQcwhLFMI-25" style="rounded=0;orthogonalLoop=1;jettySize=auto;html=1;entryX=0;entryY=0.5;entryDx=0;entryDy=0;exitX=1;exitY=0.5;exitDx=0;exitDy=0;" edge="1" parent="1" source="1wuUmruYXVWHmOODGOpv-52" target="HZBKHrXU-gOTQcwhLFMI-24">
          <mxGeometry relative="1" as="geometry" />
        </mxCell>
        <mxCell id="HZBKHrXU-gOTQcwhLFMI-27" style="rounded=0;orthogonalLoop=1;jettySize=auto;html=1;entryX=0;entryY=0.5;entryDx=0;entryDy=0;exitX=1;exitY=0.5;exitDx=0;exitDy=0;" edge="1" parent="1" source="1wuUmruYXVWHmOODGOpv-52" target="HZBKHrXU-gOTQcwhLFMI-26">
          <mxGeometry relative="1" as="geometry" />
        </mxCell>
        <mxCell id="HZBKHrXU-gOTQcwhLFMI-29" style="rounded=0;orthogonalLoop=1;jettySize=auto;html=1;entryX=0;entryY=0.5;entryDx=0;entryDy=0;exitX=1;exitY=0.5;exitDx=0;exitDy=0;" edge="1" parent="1" source="1wuUmruYXVWHmOODGOpv-52" target="HZBKHrXU-gOTQcwhLFMI-28">
          <mxGeometry relative="1" as="geometry" />
        </mxCell>
        <mxCell id="HZBKHrXU-gOTQcwhLFMI-31" style="rounded=0;orthogonalLoop=1;jettySize=auto;html=1;entryX=0;entryY=0.5;entryDx=0;entryDy=0;exitX=1;exitY=0.5;exitDx=0;exitDy=0;" edge="1" parent="1" source="1wuUmruYXVWHmOODGOpv-52" target="HZBKHrXU-gOTQcwhLFMI-30">
          <mxGeometry relative="1" as="geometry" />
        </mxCell>
        <mxCell id="HZBKHrXU-gOTQcwhLFMI-33" style="rounded=0;orthogonalLoop=1;jettySize=auto;html=1;entryX=0;entryY=0.5;entryDx=0;entryDy=0;exitX=1;exitY=0.5;exitDx=0;exitDy=0;" edge="1" parent="1" source="1wuUmruYXVWHmOODGOpv-52" target="HZBKHrXU-gOTQcwhLFMI-32">
          <mxGeometry relative="1" as="geometry" />
        </mxCell>
        <mxCell id="HZBKHrXU-gOTQcwhLFMI-35" style="rounded=0;orthogonalLoop=1;jettySize=auto;html=1;entryX=0;entryY=0.5;entryDx=0;entryDy=0;exitX=1;exitY=0.5;exitDx=0;exitDy=0;" edge="1" parent="1" source="1wuUmruYXVWHmOODGOpv-52" target="HZBKHrXU-gOTQcwhLFMI-34">
          <mxGeometry relative="1" as="geometry" />
        </mxCell>
        <mxCell id="HZBKHrXU-gOTQcwhLFMI-37" style="rounded=0;orthogonalLoop=1;jettySize=auto;html=1;entryX=0;entryY=0.5;entryDx=0;entryDy=0;exitX=1;exitY=0.5;exitDx=0;exitDy=0;" edge="1" parent="1" source="1wuUmruYXVWHmOODGOpv-52" target="HZBKHrXU-gOTQcwhLFMI-36">
          <mxGeometry relative="1" as="geometry" />
        </mxCell>
        <mxCell id="HZBKHrXU-gOTQcwhLFMI-39" style="rounded=0;orthogonalLoop=1;jettySize=auto;html=1;entryX=0;entryY=0.5;entryDx=0;entryDy=0;exitX=1;exitY=0.5;exitDx=0;exitDy=0;" edge="1" parent="1" source="1wuUmruYXVWHmOODGOpv-52" target="HZBKHrXU-gOTQcwhLFMI-38">
          <mxGeometry relative="1" as="geometry" />
        </mxCell>
        <mxCell id="HZBKHrXU-gOTQcwhLFMI-41" style="rounded=0;orthogonalLoop=1;jettySize=auto;html=1;entryX=0;entryY=0.5;entryDx=0;entryDy=0;exitX=1;exitY=0.5;exitDx=0;exitDy=0;" edge="1" parent="1" source="1wuUmruYXVWHmOODGOpv-52" target="HZBKHrXU-gOTQcwhLFMI-40">
          <mxGeometry relative="1" as="geometry" />
        </mxCell>
        <mxCell id="HZBKHrXU-gOTQcwhLFMI-43" style="rounded=0;orthogonalLoop=1;jettySize=auto;html=1;entryX=0;entryY=0.5;entryDx=0;entryDy=0;exitX=1;exitY=0.5;exitDx=0;exitDy=0;" edge="1" parent="1" source="1wuUmruYXVWHmOODGOpv-52" target="1wuUmruYXVWHmOODGOpv-25">
          <mxGeometry relative="1" as="geometry" />
        </mxCell>
        <mxCell id="HZBKHrXU-gOTQcwhLFMI-44" style="rounded=0;orthogonalLoop=1;jettySize=auto;html=1;entryX=0;entryY=0.5;entryDx=0;entryDy=0;exitX=1;exitY=0.5;exitDx=0;exitDy=0;" edge="1" parent="1" source="1wuUmruYXVWHmOODGOpv-52" target="1wuUmruYXVWHmOODGOpv-28">
          <mxGeometry relative="1" as="geometry" />
        </mxCell>
        <mxCell id="HZBKHrXU-gOTQcwhLFMI-45" style="rounded=0;orthogonalLoop=1;jettySize=auto;html=1;entryX=0;entryY=0.5;entryDx=0;entryDy=0;exitX=1;exitY=0.5;exitDx=0;exitDy=0;" edge="1" parent="1" source="1wuUmruYXVWHmOODGOpv-52" target="1wuUmruYXVWHmOODGOpv-36">
          <mxGeometry relative="1" as="geometry" />
        </mxCell>
        <mxCell id="HZBKHrXU-gOTQcwhLFMI-46" style="rounded=0;orthogonalLoop=1;jettySize=auto;html=1;entryX=0;entryY=0.5;entryDx=0;entryDy=0;exitX=1;exitY=0.5;exitDx=0;exitDy=0;" edge="1" parent="1" source="1wuUmruYXVWHmOODGOpv-52" target="1wuUmruYXVWHmOODGOpv-41">
          <mxGeometry relative="1" as="geometry" />
        </mxCell>
        <mxCell id="HZBKHrXU-gOTQcwhLFMI-47" style="rounded=0;orthogonalLoop=1;jettySize=auto;html=1;entryX=0;entryY=0.5;entryDx=0;entryDy=0;exitX=1;exitY=0.5;exitDx=0;exitDy=0;" edge="1" parent="1" source="1wuUmruYXVWHmOODGOpv-52" target="1wuUmruYXVWHmOODGOpv-45">
          <mxGeometry relative="1" as="geometry" />
        </mxCell>
        <mxCell id="HZBKHrXU-gOTQcwhLFMI-48" style="rounded=0;orthogonalLoop=1;jettySize=auto;html=1;entryX=0;entryY=0.5;entryDx=0;entryDy=0;exitX=1;exitY=0.5;exitDx=0;exitDy=0;" edge="1" parent="1" source="1wuUmruYXVWHmOODGOpv-52" target="1wuUmruYXVWHmOODGOpv-88">
          <mxGeometry relative="1" as="geometry" />
        </mxCell>
        <mxCell id="1wuUmruYXVWHmOODGOpv-52" value="SICC" style="rounded=1;whiteSpace=wrap;html=1;" parent="1" vertex="1">
          <mxGeometry x="-240" y="280" width="200" height="55" as="geometry" />
        </mxCell>
        <mxCell id="1wuUmruYXVWHmOODGOpv-61" style="edgeStyle=none;rounded=0;orthogonalLoop=1;jettySize=auto;html=1;entryX=0;entryY=0.5;entryDx=0;entryDy=0;" parent="1" source="1wuUmruYXVWHmOODGOpv-58" target="1wuUmruYXVWHmOODGOpv-59" edge="1">
          <mxGeometry relative="1" as="geometry" />
        </mxCell>
        <mxCell id="1wuUmruYXVWHmOODGOpv-58" value="SAP" style="rounded=1;whiteSpace=wrap;html=1;" parent="1" vertex="1">
          <mxGeometry x="-238" y="1198" width="200" height="55" as="geometry" />
        </mxCell>
        <mxCell id="1wuUmruYXVWHmOODGOpv-60" style="edgeStyle=none;rounded=0;orthogonalLoop=1;jettySize=auto;html=1;entryX=0;entryY=0.5;entryDx=0;entryDy=0;" parent="1" source="1wuUmruYXVWHmOODGOpv-59" target="1wuUmruYXVWHmOODGOpv-3" edge="1">
          <mxGeometry relative="1" as="geometry" />
        </mxCell>
        <mxCell id="1wuUmruYXVWHmOODGOpv-59" value="dproducto" style="rounded=1;whiteSpace=wrap;html=1;" parent="1" vertex="1">
          <mxGeometry x="182" y="1213" width="200" height="25" as="geometry" />
        </mxCell>
        <mxCell id="1wuUmruYXVWHmOODGOpv-71" style="edgeStyle=none;rounded=0;orthogonalLoop=1;jettySize=auto;html=1;entryX=0;entryY=0.5;entryDx=0;entryDy=0;fontSize=12;" parent="1" edge="1">
          <mxGeometry relative="1" as="geometry">
            <mxPoint x="-418" y="2607.5" as="sourcePoint" />
            <mxPoint x="-358" y="2607.5" as="targetPoint" />
          </mxGeometry>
        </mxCell>
        <mxCell id="1wuUmruYXVWHmOODGOpv-62" value="NIFI" style="rounded=1;whiteSpace=wrap;html=1;" parent="1" vertex="1">
          <mxGeometry x="-623" y="2580" width="200" height="55" as="geometry" />
        </mxCell>
        <mxCell id="1wuUmruYXVWHmOODGOpv-66" style="edgeStyle=none;rounded=0;orthogonalLoop=1;jettySize=auto;html=1;entryX=0;entryY=0.5;entryDx=0;entryDy=0;fontSize=8;" parent="1" source="1wuUmruYXVWHmOODGOpv-63" target="1wuUmruYXVWHmOODGOpv-5" edge="1">
          <mxGeometry relative="1" as="geometry" />
        </mxCell>
        <mxCell id="1wuUmruYXVWHmOODGOpv-63" value="s3://belc-bigdata-landing-dlk-prd/datalake/input/sap/FaltanteVirtual/" style="rounded=1;whiteSpace=wrap;html=1;fontSize=8;" parent="1" vertex="1">
          <mxGeometry x="192" y="2595" width="200" height="25" as="geometry" />
        </mxCell>
        <mxCell id="1wuUmruYXVWHmOODGOpv-69" style="edgeStyle=none;rounded=0;orthogonalLoop=1;jettySize=auto;html=1;fontSize=12;" parent="1" target="1wuUmruYXVWHmOODGOpv-67" edge="1">
          <mxGeometry relative="1" as="geometry">
            <mxPoint x="-138" y="2607.5" as="sourcePoint" />
          </mxGeometry>
        </mxCell>
        <mxCell id="1wuUmruYXVWHmOODGOpv-65" value="&lt;div&gt;Faltante Virtual&lt;/div&gt;&lt;div&gt;Process Group&lt;/div&gt;" style="rounded=1;whiteSpace=wrap;html=1;" parent="1" vertex="1">
          <mxGeometry x="-358" y="2587.5" width="220" height="40" as="geometry" />
        </mxCell>
        <mxCell id="1wuUmruYXVWHmOODGOpv-68" style="edgeStyle=none;rounded=0;orthogonalLoop=1;jettySize=auto;html=1;entryX=0;entryY=0.5;entryDx=0;entryDy=0;fontSize=12;" parent="1" source="1wuUmruYXVWHmOODGOpv-67" target="1wuUmruYXVWHmOODGOpv-63" edge="1">
          <mxGeometry relative="1" as="geometry" />
        </mxCell>
        <mxCell id="1wuUmruYXVWHmOODGOpv-67" value="CSV" style="rounded=1;whiteSpace=wrap;html=1;fontSize=12;" parent="1" vertex="1">
          <mxGeometry x="-78" y="2595" width="200" height="25" as="geometry" />
        </mxCell>
        <mxCell id="1wuUmruYXVWHmOODGOpv-78" style="edgeStyle=none;rounded=0;orthogonalLoop=1;jettySize=auto;html=1;entryX=0;entryY=0.5;entryDx=0;entryDy=0;fontSize=12;" parent="1" source="1wuUmruYXVWHmOODGOpv-80" target="1wuUmruYXVWHmOODGOpv-76" edge="1">
          <mxGeometry relative="1" as="geometry" />
        </mxCell>
        <mxCell id="1wuUmruYXVWHmOODGOpv-83" style="edgeStyle=none;rounded=0;orthogonalLoop=1;jettySize=auto;html=1;fontSize=12;entryX=0;entryY=0.5;entryDx=0;entryDy=0;" parent="1" source="1wuUmruYXVWHmOODGOpv-74" target="1wuUmruYXVWHmOODGOpv-80" edge="1">
          <mxGeometry relative="1" as="geometry">
            <mxPoint x="-648" y="2707.5" as="targetPoint" />
          </mxGeometry>
        </mxCell>
        <mxCell id="1wuUmruYXVWHmOODGOpv-74" value="NIFI" style="rounded=1;whiteSpace=wrap;html=1;" parent="1" vertex="1">
          <mxGeometry x="-898" y="2680" width="200" height="55" as="geometry" />
        </mxCell>
        <mxCell id="1wuUmruYXVWHmOODGOpv-98" value="" style="edgeStyle=none;rounded=0;orthogonalLoop=1;jettySize=auto;html=1;fontSize=7;exitX=1;exitY=0.5;exitDx=0;exitDy=0;entryX=0;entryY=0.5;entryDx=0;entryDy=0;" parent="1" source="1wuUmruYXVWHmOODGOpv-75" target="1wuUmruYXVWHmOODGOpv-6" edge="1">
          <mxGeometry relative="1" as="geometry" />
        </mxCell>
        <mxCell id="1wuUmruYXVWHmOODGOpv-75" value="REDSHIFT" style="rounded=1;whiteSpace=wrap;html=1;fontSize=8;" parent="1" vertex="1">
          <mxGeometry x="192" y="2695" width="200" height="25" as="geometry" />
        </mxCell>
        <mxCell id="1wuUmruYXVWHmOODGOpv-79" style="edgeStyle=none;rounded=0;orthogonalLoop=1;jettySize=auto;html=1;entryX=0;entryY=0.5;entryDx=0;entryDy=0;fontSize=12;" parent="1" source="1wuUmruYXVWHmOODGOpv-76" target="1wuUmruYXVWHmOODGOpv-77" edge="1">
          <mxGeometry relative="1" as="geometry" />
        </mxCell>
        <mxCell id="1wuUmruYXVWHmOODGOpv-76" value="EMR" style="rounded=1;whiteSpace=wrap;html=1;" parent="1" vertex="1">
          <mxGeometry x="-358" y="2687.5" width="220" height="40" as="geometry" />
        </mxCell>
        <mxCell id="1wuUmruYXVWHmOODGOpv-84" style="edgeStyle=none;rounded=0;orthogonalLoop=1;jettySize=auto;html=1;entryX=0;entryY=0.5;entryDx=0;entryDy=0;fontSize=7;" parent="1" source="1wuUmruYXVWHmOODGOpv-77" target="1wuUmruYXVWHmOODGOpv-75" edge="1">
          <mxGeometry relative="1" as="geometry" />
        </mxCell>
        <mxCell id="1wuUmruYXVWHmOODGOpv-77" value="s3://analitico/GlueDatabase/functional/&#xa;dwh_cobranzas_consultoras/" style="rounded=1;fontSize=7;labelBorderColor=none;" parent="1" vertex="1">
          <mxGeometry x="-78" y="2695" width="200" height="25" as="geometry" />
        </mxCell>
        <mxCell id="1wuUmruYXVWHmOODGOpv-80" value="REDSHIFT" style="rounded=1;whiteSpace=wrap;html=1;" parent="1" vertex="1">
          <mxGeometry x="-633" y="2687.5" width="220" height="40" as="geometry" />
        </mxCell>
        <mxCell id="1wuUmruYXVWHmOODGOpv-86" value="dwh_debelista" style="rounded=1;whiteSpace=wrap;html=1;" parent="1" vertex="1">
          <mxGeometry x="430" y="390" width="200" height="25" as="geometry" />
        </mxCell>
        <mxCell id="1wuUmruYXVWHmOODGOpv-87" style="edgeStyle=orthogonalEdgeStyle;rounded=0;orthogonalLoop=1;jettySize=auto;html=1;entryX=0;entryY=0.5;entryDx=0;entryDy=0;" parent="1" source="1wuUmruYXVWHmOODGOpv-88" target="1wuUmruYXVWHmOODGOpv-86" edge="1">
          <mxGeometry relative="1" as="geometry" />
        </mxCell>
        <mxCell id="1wuUmruYXVWHmOODGOpv-88" value="debelista" style="rounded=1;whiteSpace=wrap;html=1;" parent="1" vertex="1">
          <mxGeometry x="180" y="390" width="200" height="25" as="geometry" />
        </mxCell>
        <mxCell id="1wuUmruYXVWHmOODGOpv-99" style="edgeStyle=none;rounded=0;orthogonalLoop=1;jettySize=auto;html=1;entryX=0;entryY=0.5;entryDx=0;entryDy=0;fontSize=12;exitX=1;exitY=0.5;exitDx=0;exitDy=0;" parent="1" source="1wuUmruYXVWHmOODGOpv-107" target="1wuUmruYXVWHmOODGOpv-108" edge="1">
          <mxGeometry relative="1" as="geometry">
            <mxPoint x="-108" y="2797.5" as="targetPoint" />
          </mxGeometry>
        </mxCell>
        <mxCell id="1wuUmruYXVWHmOODGOpv-100" style="edgeStyle=none;rounded=0;orthogonalLoop=1;jettySize=auto;html=1;fontSize=12;entryX=0;entryY=0.5;entryDx=0;entryDy=0;exitX=1;exitY=0.5;exitDx=0;exitDy=0;" parent="1" source="1wuUmruYXVWHmOODGOpv-101" target="1wuUmruYXVWHmOODGOpv-107" edge="1">
          <mxGeometry relative="1" as="geometry">
            <mxPoint x="-398" y="2797.5" as="targetPoint" />
          </mxGeometry>
        </mxCell>
        <mxCell id="1wuUmruYXVWHmOODGOpv-101" value="NIFI" style="rounded=1;whiteSpace=wrap;html=1;" parent="1" vertex="1">
          <mxGeometry x="-698" y="2903" width="200" height="55" as="geometry" />
        </mxCell>
        <mxCell id="1wuUmruYXVWHmOODGOpv-103" style="edgeStyle=none;rounded=0;orthogonalLoop=1;jettySize=auto;html=1;entryX=0;entryY=0.5;entryDx=0;entryDy=0;fontSize=12;" parent="1" edge="1">
          <mxGeometry relative="1" as="geometry">
            <mxPoint x="102" y="2798" as="sourcePoint" />
            <mxPoint x="172" y="2797.5" as="targetPoint" />
          </mxGeometry>
        </mxCell>
        <mxCell id="1wuUmruYXVWHmOODGOpv-138" style="edgeStyle=none;rounded=0;orthogonalLoop=1;jettySize=auto;html=1;entryX=0;entryY=0.5;entryDx=0;entryDy=0;fontSize=12;exitX=1;exitY=0.5;exitDx=0;exitDy=0;" parent="1" source="1wuUmruYXVWHmOODGOpv-107" target="1wuUmruYXVWHmOODGOpv-115" edge="1">
          <mxGeometry relative="1" as="geometry" />
        </mxCell>
        <mxCell id="1wuUmruYXVWHmOODGOpv-139" style="edgeStyle=none;rounded=0;orthogonalLoop=1;jettySize=auto;html=1;entryX=0;entryY=0.5;entryDx=0;entryDy=0;fontSize=12;exitX=1;exitY=0.5;exitDx=0;exitDy=0;" parent="1" source="1wuUmruYXVWHmOODGOpv-107" target="1wuUmruYXVWHmOODGOpv-120" edge="1">
          <mxGeometry relative="1" as="geometry" />
        </mxCell>
        <mxCell id="1wuUmruYXVWHmOODGOpv-140" style="edgeStyle=none;rounded=0;orthogonalLoop=1;jettySize=auto;html=1;entryX=0;entryY=0.25;entryDx=0;entryDy=0;fontSize=12;exitX=1;exitY=0.5;exitDx=0;exitDy=0;" parent="1" source="1wuUmruYXVWHmOODGOpv-107" target="1wuUmruYXVWHmOODGOpv-127" edge="1">
          <mxGeometry relative="1" as="geometry" />
        </mxCell>
        <mxCell id="1wuUmruYXVWHmOODGOpv-141" style="edgeStyle=none;rounded=0;orthogonalLoop=1;jettySize=auto;html=1;entryX=0;entryY=0.5;entryDx=0;entryDy=0;fontSize=12;exitX=1;exitY=0.5;exitDx=0;exitDy=0;" parent="1" source="1wuUmruYXVWHmOODGOpv-107" target="1wuUmruYXVWHmOODGOpv-131" edge="1">
          <mxGeometry relative="1" as="geometry">
            <mxPoint x="-188" y="2928" as="sourcePoint" />
          </mxGeometry>
        </mxCell>
        <mxCell id="1wuUmruYXVWHmOODGOpv-142" style="edgeStyle=none;rounded=0;orthogonalLoop=1;jettySize=auto;html=1;entryX=0;entryY=0.5;entryDx=0;entryDy=0;fontSize=12;exitX=1;exitY=0.5;exitDx=0;exitDy=0;" parent="1" source="1wuUmruYXVWHmOODGOpv-107" target="1wuUmruYXVWHmOODGOpv-135" edge="1">
          <mxGeometry relative="1" as="geometry" />
        </mxCell>
        <mxCell id="1wuUmruYXVWHmOODGOpv-107" value="REDSHIFT (wrk_analitico)" style="rounded=1;whiteSpace=wrap;html=1;" parent="1" vertex="1">
          <mxGeometry x="-423" y="2910.5" width="220" height="40" as="geometry" />
        </mxCell>
        <mxCell id="1wuUmruYXVWHmOODGOpv-108" value="hec_gyp_real" style="rounded=1;fontSize=12;labelBorderColor=none;" parent="1" vertex="1">
          <mxGeometry x="-78" y="2785" width="200" height="25" as="geometry" />
        </mxCell>
        <mxCell id="1wuUmruYXVWHmOODGOpv-112" style="edgeStyle=none;rounded=0;orthogonalLoop=1;jettySize=auto;html=1;entryX=0;entryY=0.5;entryDx=0;entryDy=0;fontSize=12;" parent="1" source="1wuUmruYXVWHmOODGOpv-111" target="1wuUmruYXVWHmOODGOpv-8" edge="1">
          <mxGeometry relative="1" as="geometry" />
        </mxCell>
        <mxCell id="1wuUmruYXVWHmOODGOpv-111" value="REDSHIFT (fnc_analitico)" style="rounded=1;whiteSpace=wrap;html=1;" parent="1" vertex="1">
          <mxGeometry x="172" y="2777.5" width="220" height="40" as="geometry" />
        </mxCell>
        <mxCell id="1wuUmruYXVWHmOODGOpv-117" style="edgeStyle=none;rounded=0;orthogonalLoop=1;jettySize=auto;html=1;entryX=0;entryY=0.5;entryDx=0;entryDy=0;fontSize=12;" parent="1" source="1wuUmruYXVWHmOODGOpv-115" target="1wuUmruYXVWHmOODGOpv-116" edge="1">
          <mxGeometry relative="1" as="geometry" />
        </mxCell>
        <mxCell id="1wuUmruYXVWHmOODGOpv-115" value="mst_musthave_proyectado" style="rounded=1;fontSize=12;labelBackgroundColor=none;labelBorderColor=none;" parent="1" vertex="1">
          <mxGeometry x="-78" y="2838" width="200" height="25" as="geometry" />
        </mxCell>
        <mxCell id="1wuUmruYXVWHmOODGOpv-118" style="edgeStyle=none;rounded=0;orthogonalLoop=1;jettySize=auto;html=1;entryX=0;entryY=0.5;entryDx=0;entryDy=0;fontSize=12;" parent="1" source="1wuUmruYXVWHmOODGOpv-116" target="1wuUmruYXVWHmOODGOpv-10" edge="1">
          <mxGeometry relative="1" as="geometry" />
        </mxCell>
        <mxCell id="1wuUmruYXVWHmOODGOpv-116" value="REDSHIFT (fnc_analitico)" style="rounded=1;whiteSpace=wrap;html=1;" parent="1" vertex="1">
          <mxGeometry x="172" y="2830.5" width="220" height="40" as="geometry" />
        </mxCell>
        <mxCell id="1wuUmruYXVWHmOODGOpv-119" style="edgeStyle=none;rounded=0;orthogonalLoop=1;jettySize=auto;html=1;entryX=0;entryY=0.5;entryDx=0;entryDy=0;fontSize=12;" parent="1" source="1wuUmruYXVWHmOODGOpv-120" target="1wuUmruYXVWHmOODGOpv-122" edge="1">
          <mxGeometry relative="1" as="geometry" />
        </mxCell>
        <mxCell id="1wuUmruYXVWHmOODGOpv-120" value="mst_tcxcampana" style="rounded=1;fontSize=12;labelBackgroundColor=none;labelBorderColor=none;" parent="1" vertex="1">
          <mxGeometry x="-78" y="2885.5" width="200" height="25" as="geometry" />
        </mxCell>
        <mxCell id="1wuUmruYXVWHmOODGOpv-121" style="edgeStyle=none;rounded=0;orthogonalLoop=1;jettySize=auto;html=1;entryX=0;entryY=0.5;entryDx=0;entryDy=0;fontSize=12;" parent="1" source="1wuUmruYXVWHmOODGOpv-122" edge="1">
          <mxGeometry relative="1" as="geometry">
            <mxPoint x="442" y="2898" as="targetPoint" />
          </mxGeometry>
        </mxCell>
        <mxCell id="1wuUmruYXVWHmOODGOpv-122" value="REDSHIFT (fnc_analitico)" style="rounded=1;whiteSpace=wrap;html=1;" parent="1" vertex="1">
          <mxGeometry x="172" y="2878" width="220" height="40" as="geometry" />
        </mxCell>
        <mxCell id="1wuUmruYXVWHmOODGOpv-126" style="edgeStyle=none;rounded=0;orthogonalLoop=1;jettySize=auto;html=1;entryX=0;entryY=0.5;entryDx=0;entryDy=0;fontSize=12;" parent="1" source="1wuUmruYXVWHmOODGOpv-127" target="1wuUmruYXVWHmOODGOpv-129" edge="1">
          <mxGeometry relative="1" as="geometry" />
        </mxCell>
        <mxCell id="1wuUmruYXVWHmOODGOpv-127" value="hec_sap_recau" style="rounded=1;fontSize=12;labelBackgroundColor=none;labelBorderColor=none;" parent="1" vertex="1">
          <mxGeometry x="-78" y="2935.5" width="200" height="25" as="geometry" />
        </mxCell>
        <mxCell id="1wuUmruYXVWHmOODGOpv-128" style="edgeStyle=none;rounded=0;orthogonalLoop=1;jettySize=auto;html=1;entryX=0;entryY=0.5;entryDx=0;entryDy=0;fontSize=12;" parent="1" source="1wuUmruYXVWHmOODGOpv-129" edge="1">
          <mxGeometry relative="1" as="geometry">
            <mxPoint x="442" y="2948" as="targetPoint" />
          </mxGeometry>
        </mxCell>
        <mxCell id="1wuUmruYXVWHmOODGOpv-129" value="REDSHIFT (fnc_analitico)" style="rounded=1;whiteSpace=wrap;html=1;" parent="1" vertex="1">
          <mxGeometry x="172" y="2928" width="220" height="40" as="geometry" />
        </mxCell>
        <mxCell id="1wuUmruYXVWHmOODGOpv-130" style="edgeStyle=none;rounded=0;orthogonalLoop=1;jettySize=auto;html=1;entryX=0;entryY=0.5;entryDx=0;entryDy=0;fontSize=12;" parent="1" source="1wuUmruYXVWHmOODGOpv-131" target="1wuUmruYXVWHmOODGOpv-133" edge="1">
          <mxGeometry relative="1" as="geometry" />
        </mxCell>
        <mxCell id="1wuUmruYXVWHmOODGOpv-131" value="mst_tcxmes" style="rounded=1;fontSize=12;labelBackgroundColor=none;labelBorderColor=none;" parent="1" vertex="1">
          <mxGeometry x="-78" y="2985.5" width="200" height="25" as="geometry" />
        </mxCell>
        <mxCell id="1wuUmruYXVWHmOODGOpv-132" style="edgeStyle=none;rounded=0;orthogonalLoop=1;jettySize=auto;html=1;entryX=0;entryY=0.5;entryDx=0;entryDy=0;fontSize=12;" parent="1" source="1wuUmruYXVWHmOODGOpv-133" edge="1">
          <mxGeometry relative="1" as="geometry">
            <mxPoint x="442" y="2998" as="targetPoint" />
          </mxGeometry>
        </mxCell>
        <mxCell id="1wuUmruYXVWHmOODGOpv-133" value="REDSHIFT (fnc_analitico)" style="rounded=1;whiteSpace=wrap;html=1;" parent="1" vertex="1">
          <mxGeometry x="172" y="2978" width="220" height="40" as="geometry" />
        </mxCell>
        <mxCell id="1wuUmruYXVWHmOODGOpv-134" style="edgeStyle=none;rounded=0;orthogonalLoop=1;jettySize=auto;html=1;entryX=0;entryY=0.5;entryDx=0;entryDy=0;fontSize=12;" parent="1" source="1wuUmruYXVWHmOODGOpv-135" target="1wuUmruYXVWHmOODGOpv-137" edge="1">
          <mxGeometry relative="1" as="geometry" />
        </mxCell>
        <mxCell id="1wuUmruYXVWHmOODGOpv-135" value="hec_gyp_proyección" style="rounded=1;fontSize=12;labelBackgroundColor=none;labelBorderColor=none;" parent="1" vertex="1">
          <mxGeometry x="-78" y="3035.5" width="200" height="25" as="geometry" />
        </mxCell>
        <mxCell id="1wuUmruYXVWHmOODGOpv-136" style="edgeStyle=none;rounded=0;orthogonalLoop=1;jettySize=auto;html=1;entryX=0;entryY=0.5;entryDx=0;entryDy=0;fontSize=12;" parent="1" source="1wuUmruYXVWHmOODGOpv-137" edge="1">
          <mxGeometry relative="1" as="geometry">
            <mxPoint x="442" y="3048" as="targetPoint" />
          </mxGeometry>
        </mxCell>
        <mxCell id="1wuUmruYXVWHmOODGOpv-137" value="REDSHIFT (fnc_analitico)" style="rounded=1;whiteSpace=wrap;html=1;" parent="1" vertex="1">
          <mxGeometry x="172" y="3028" width="220" height="40" as="geometry" />
        </mxCell>
        <mxCell id="HZBKHrXU-gOTQcwhLFMI-68" style="edgeStyle=none;rounded=0;orthogonalLoop=1;jettySize=auto;html=1;entryX=0;entryY=0.5;entryDx=0;entryDy=0;exitX=1;exitY=0.5;exitDx=0;exitDy=0;" edge="1" parent="1" source="NJMOyIMlu2et5LbDtI8v-3" target="HZBKHrXU-gOTQcwhLFMI-50">
          <mxGeometry relative="1" as="geometry">
            <mxPoint x="-32" y="1298" as="sourcePoint" />
          </mxGeometry>
        </mxCell>
        <mxCell id="HZBKHrXU-gOTQcwhLFMI-69" style="edgeStyle=none;rounded=0;orthogonalLoop=1;jettySize=auto;html=1;" edge="1" parent="1" source="NJMOyIMlu2et5LbDtI8v-3" target="NJMOyIMlu2et5LbDtI8v-5">
          <mxGeometry relative="1" as="geometry" />
        </mxCell>
        <mxCell id="HZBKHrXU-gOTQcwhLFMI-70" style="edgeStyle=none;rounded=0;orthogonalLoop=1;jettySize=auto;html=1;entryX=0;entryY=0.5;entryDx=0;entryDy=0;exitX=1;exitY=0.5;exitDx=0;exitDy=0;" edge="1" parent="1" source="NJMOyIMlu2et5LbDtI8v-3" target="HZBKHrXU-gOTQcwhLFMI-52">
          <mxGeometry relative="1" as="geometry" />
        </mxCell>
        <mxCell id="HZBKHrXU-gOTQcwhLFMI-71" style="edgeStyle=none;rounded=0;orthogonalLoop=1;jettySize=auto;html=1;entryX=0;entryY=0.5;entryDx=0;entryDy=0;exitX=1;exitY=0.5;exitDx=0;exitDy=0;" edge="1" parent="1" source="NJMOyIMlu2et5LbDtI8v-3" target="HZBKHrXU-gOTQcwhLFMI-53">
          <mxGeometry relative="1" as="geometry" />
        </mxCell>
        <mxCell id="HZBKHrXU-gOTQcwhLFMI-72" style="edgeStyle=none;rounded=0;orthogonalLoop=1;jettySize=auto;html=1;entryX=0;entryY=0.5;entryDx=0;entryDy=0;exitX=1;exitY=0.5;exitDx=0;exitDy=0;" edge="1" parent="1" source="NJMOyIMlu2et5LbDtI8v-3" target="HZBKHrXU-gOTQcwhLFMI-54">
          <mxGeometry relative="1" as="geometry" />
        </mxCell>
        <mxCell id="HZBKHrXU-gOTQcwhLFMI-73" style="edgeStyle=none;rounded=0;orthogonalLoop=1;jettySize=auto;html=1;entryX=0;entryY=0.5;entryDx=0;entryDy=0;exitX=1;exitY=0.5;exitDx=0;exitDy=0;" edge="1" parent="1" source="NJMOyIMlu2et5LbDtI8v-3" target="HZBKHrXU-gOTQcwhLFMI-56">
          <mxGeometry relative="1" as="geometry" />
        </mxCell>
        <mxCell id="HZBKHrXU-gOTQcwhLFMI-74" style="edgeStyle=none;rounded=0;orthogonalLoop=1;jettySize=auto;html=1;entryX=0;entryY=0.5;entryDx=0;entryDy=0;exitX=1;exitY=0.5;exitDx=0;exitDy=0;" edge="1" parent="1" source="NJMOyIMlu2et5LbDtI8v-3" target="HZBKHrXU-gOTQcwhLFMI-57">
          <mxGeometry relative="1" as="geometry" />
        </mxCell>
        <mxCell id="HZBKHrXU-gOTQcwhLFMI-75" style="edgeStyle=none;rounded=0;orthogonalLoop=1;jettySize=auto;html=1;entryX=0;entryY=0.5;entryDx=0;entryDy=0;exitX=1.009;exitY=0.522;exitDx=0;exitDy=0;exitPerimeter=0;" edge="1" parent="1" source="NJMOyIMlu2et5LbDtI8v-3" target="HZBKHrXU-gOTQcwhLFMI-58">
          <mxGeometry relative="1" as="geometry" />
        </mxCell>
        <mxCell id="HZBKHrXU-gOTQcwhLFMI-76" style="edgeStyle=none;rounded=0;orthogonalLoop=1;jettySize=auto;html=1;entryX=0;entryY=0.5;entryDx=0;entryDy=0;exitX=1;exitY=0.5;exitDx=0;exitDy=0;" edge="1" parent="1" source="NJMOyIMlu2et5LbDtI8v-3" target="HZBKHrXU-gOTQcwhLFMI-60">
          <mxGeometry relative="1" as="geometry" />
        </mxCell>
        <mxCell id="HZBKHrXU-gOTQcwhLFMI-77" style="edgeStyle=none;rounded=0;orthogonalLoop=1;jettySize=auto;html=1;entryX=0;entryY=0.5;entryDx=0;entryDy=0;exitX=1;exitY=0.5;exitDx=0;exitDy=0;" edge="1" parent="1" source="NJMOyIMlu2et5LbDtI8v-3" target="HZBKHrXU-gOTQcwhLFMI-61">
          <mxGeometry relative="1" as="geometry" />
        </mxCell>
        <mxCell id="HZBKHrXU-gOTQcwhLFMI-78" style="edgeStyle=none;rounded=0;orthogonalLoop=1;jettySize=auto;html=1;entryX=0;entryY=0.5;entryDx=0;entryDy=0;exitX=1;exitY=0.5;exitDx=0;exitDy=0;" edge="1" parent="1" source="NJMOyIMlu2et5LbDtI8v-3" target="HZBKHrXU-gOTQcwhLFMI-62">
          <mxGeometry relative="1" as="geometry" />
        </mxCell>
        <mxCell id="HZBKHrXU-gOTQcwhLFMI-79" style="edgeStyle=none;rounded=0;orthogonalLoop=1;jettySize=auto;html=1;entryX=0;entryY=0.5;entryDx=0;entryDy=0;exitX=1;exitY=0.5;exitDx=0;exitDy=0;" edge="1" parent="1" source="NJMOyIMlu2et5LbDtI8v-3" target="HZBKHrXU-gOTQcwhLFMI-64">
          <mxGeometry relative="1" as="geometry" />
        </mxCell>
        <mxCell id="HZBKHrXU-gOTQcwhLFMI-80" style="edgeStyle=none;rounded=0;orthogonalLoop=1;jettySize=auto;html=1;entryX=0;entryY=0.5;entryDx=0;entryDy=0;exitX=1;exitY=0.5;exitDx=0;exitDy=0;" edge="1" parent="1" source="NJMOyIMlu2et5LbDtI8v-3" target="HZBKHrXU-gOTQcwhLFMI-65">
          <mxGeometry relative="1" as="geometry" />
        </mxCell>
        <mxCell id="HZBKHrXU-gOTQcwhLFMI-81" style="edgeStyle=none;rounded=0;orthogonalLoop=1;jettySize=auto;html=1;entryX=0;entryY=0.5;entryDx=0;entryDy=0;exitX=1;exitY=0.5;exitDx=0;exitDy=0;" edge="1" parent="1" source="NJMOyIMlu2et5LbDtI8v-3" target="HZBKHrXU-gOTQcwhLFMI-66">
          <mxGeometry relative="1" as="geometry" />
        </mxCell>
        <mxCell id="NJMOyIMlu2et5LbDtI8v-3" value="DIGITAL" style="rounded=1;whiteSpace=wrap;html=1;" parent="1" vertex="1">
          <mxGeometry x="-238" y="1265" width="200" height="55" as="geometry" />
        </mxCell>
        <mxCell id="NJMOyIMlu2et5LbDtI8v-6" style="edgeStyle=orthogonalEdgeStyle;rounded=0;orthogonalLoop=1;jettySize=auto;html=1;entryX=0;entryY=0.5;entryDx=0;entryDy=0;" parent="1" source="NJMOyIMlu2et5LbDtI8v-5" target="1wuUmruYXVWHmOODGOpv-20" edge="1">
          <mxGeometry relative="1" as="geometry">
            <Array as="points">
              <mxPoint x="400" y="667" />
              <mxPoint x="400" y="273" />
            </Array>
          </mxGeometry>
        </mxCell>
        <mxCell id="NJMOyIMlu2et5LbDtI8v-5" value="flogingresoportal" style="rounded=1;whiteSpace=wrap;html=1;" parent="1" vertex="1">
          <mxGeometry x="182" y="1280" width="200" height="25" as="geometry" />
        </mxCell>
        <mxCell id="NJMOyIMlu2et5LbDtI8v-7" style="edgeStyle=none;rounded=0;orthogonalLoop=1;jettySize=auto;html=1;entryX=0;entryY=0.5;entryDx=0;entryDy=0;" parent="1" source="NJMOyIMlu2et5LbDtI8v-8" target="NJMOyIMlu2et5LbDtI8v-9" edge="1">
          <mxGeometry relative="1" as="geometry" />
        </mxCell>
        <mxCell id="HZBKHrXU-gOTQcwhLFMI-10" style="edgeStyle=orthogonalEdgeStyle;rounded=0;orthogonalLoop=1;jettySize=auto;html=1;entryX=0;entryY=0.5;entryDx=0;entryDy=0;" edge="1" parent="1" source="NJMOyIMlu2et5LbDtI8v-8" target="HZBKHrXU-gOTQcwhLFMI-2">
          <mxGeometry relative="1" as="geometry" />
        </mxCell>
        <mxCell id="HZBKHrXU-gOTQcwhLFMI-11" style="edgeStyle=orthogonalEdgeStyle;rounded=0;orthogonalLoop=1;jettySize=auto;html=1;entryX=0;entryY=0.5;entryDx=0;entryDy=0;" edge="1" parent="1" source="NJMOyIMlu2et5LbDtI8v-8" target="HZBKHrXU-gOTQcwhLFMI-4">
          <mxGeometry relative="1" as="geometry" />
        </mxCell>
        <mxCell id="HZBKHrXU-gOTQcwhLFMI-12" style="edgeStyle=orthogonalEdgeStyle;rounded=0;orthogonalLoop=1;jettySize=auto;html=1;entryX=0;entryY=0.5;entryDx=0;entryDy=0;" edge="1" parent="1" source="NJMOyIMlu2et5LbDtI8v-8" target="HZBKHrXU-gOTQcwhLFMI-3">
          <mxGeometry relative="1" as="geometry" />
        </mxCell>
        <mxCell id="HZBKHrXU-gOTQcwhLFMI-13" style="edgeStyle=orthogonalEdgeStyle;rounded=0;orthogonalLoop=1;jettySize=auto;html=1;entryX=0;entryY=0.5;entryDx=0;entryDy=0;" edge="1" parent="1" source="NJMOyIMlu2et5LbDtI8v-8" target="HZBKHrXU-gOTQcwhLFMI-5">
          <mxGeometry relative="1" as="geometry" />
        </mxCell>
        <mxCell id="NJMOyIMlu2et5LbDtI8v-8" value="BI" style="rounded=1;whiteSpace=wrap;html=1;" parent="1" vertex="1">
          <mxGeometry x="-238" y="2146" width="200" height="55" as="geometry" />
        </mxCell>
        <mxCell id="N2-1pm0XsO8ft6QqIfaM-2" style="edgeStyle=orthogonalEdgeStyle;rounded=0;orthogonalLoop=1;jettySize=auto;html=1;entryX=0;entryY=0.5;entryDx=0;entryDy=0;" parent="1" source="NJMOyIMlu2et5LbDtI8v-9" target="1wuUmruYXVWHmOODGOpv-20" edge="1">
          <mxGeometry relative="1" as="geometry">
            <Array as="points">
              <mxPoint x="400" y="790" />
              <mxPoint x="400" y="272" />
            </Array>
          </mxGeometry>
        </mxCell>
        <mxCell id="NJMOyIMlu2et5LbDtI8v-9" value="fstaebecam" style="rounded=1;whiteSpace=wrap;html=1;" parent="1" vertex="1">
          <mxGeometry x="182" y="2161" width="200" height="25" as="geometry" />
        </mxCell>
        <mxCell id="CRPI-oqAdQSzKJL0O-IU-2" value="dwh_fvtacobzoncam" style="rounded=1;whiteSpace=wrap;html=1;" parent="1" vertex="1">
          <mxGeometry x="432" y="1139" width="200" height="25" as="geometry" />
        </mxCell>
        <mxCell id="CRPI-oqAdQSzKJL0O-IU-3" style="edgeStyle=none;rounded=0;orthogonalLoop=1;jettySize=auto;html=1;entryX=0;entryY=0.5;entryDx=0;entryDy=0;" parent="1" source="CRPI-oqAdQSzKJL0O-IU-4" target="CRPI-oqAdQSzKJL0O-IU-6" edge="1">
          <mxGeometry relative="1" as="geometry" />
        </mxCell>
        <mxCell id="CRPI-oqAdQSzKJL0O-IU-4" value="SICCPF" style="rounded=1;whiteSpace=wrap;html=1;" parent="1" vertex="1">
          <mxGeometry x="-238" y="1124" width="200" height="55" as="geometry" />
        </mxCell>
        <mxCell id="CRPI-oqAdQSzKJL0O-IU-5" style="edgeStyle=none;rounded=0;orthogonalLoop=1;jettySize=auto;html=1;entryX=0;entryY=0.5;entryDx=0;entryDy=0;" parent="1" source="CRPI-oqAdQSzKJL0O-IU-6" target="CRPI-oqAdQSzKJL0O-IU-2" edge="1">
          <mxGeometry relative="1" as="geometry" />
        </mxCell>
        <mxCell id="CRPI-oqAdQSzKJL0O-IU-6" value="fvtacobzoncam" style="rounded=1;whiteSpace=wrap;html=1;" parent="1" vertex="1">
          <mxGeometry x="182" y="1139" width="200" height="25" as="geometry" />
        </mxCell>
        <mxCell id="N2-1pm0XsO8ft6QqIfaM-5" style="edgeStyle=orthogonalEdgeStyle;rounded=0;orthogonalLoop=1;jettySize=auto;html=1;entryX=0;entryY=0.5;entryDx=0;entryDy=0;" parent="1" source="N2-1pm0XsO8ft6QqIfaM-1" target="1wuUmruYXVWHmOODGOpv-22" edge="1">
          <mxGeometry relative="1" as="geometry">
            <Array as="points">
              <mxPoint x="399" y="720" />
              <mxPoint x="399" y="358" />
            </Array>
          </mxGeometry>
        </mxCell>
        <mxCell id="N2-1pm0XsO8ft6QqIfaM-1" value="dorigenpedidoweb" style="rounded=1;whiteSpace=wrap;html=1;" parent="1" vertex="1">
          <mxGeometry x="182" y="1326" width="200" height="25" as="geometry" />
        </mxCell>
        <mxCell id="HZBKHrXU-gOTQcwhLFMI-2" value="dstatus" style="rounded=1;whiteSpace=wrap;html=1;" vertex="1" parent="1">
          <mxGeometry x="182" y="2202" width="200" height="25" as="geometry" />
        </mxCell>
        <mxCell id="HZBKHrXU-gOTQcwhLFMI-3" value="fresultadopalancas" style="rounded=1;whiteSpace=wrap;html=1;" vertex="1" parent="1">
          <mxGeometry x="181" y="2241" width="200" height="25" as="geometry" />
        </mxCell>
        <mxCell id="HZBKHrXU-gOTQcwhLFMI-4" value="dcomportamientorolling" style="rounded=1;whiteSpace=wrap;html=1;" vertex="1" parent="1">
          <mxGeometry x="181" y="2281" width="200" height="25" as="geometry" />
        </mxCell>
        <mxCell id="HZBKHrXU-gOTQcwhLFMI-5" value="dpais" style="rounded=1;whiteSpace=wrap;html=1;" vertex="1" parent="1">
          <mxGeometry x="181" y="2320" width="200" height="25" as="geometry" />
        </mxCell>
        <mxCell id="HZBKHrXU-gOTQcwhLFMI-14" value="debelistadatosadic" style="rounded=1;whiteSpace=wrap;html=1;" vertex="1" parent="1">
          <mxGeometry x="181" y="431" width="200" height="25" as="geometry" />
        </mxCell>
        <mxCell id="HZBKHrXU-gOTQcwhLFMI-16" value="fstaebeadic" style="rounded=1;whiteSpace=wrap;html=1;" vertex="1" parent="1">
          <mxGeometry x="179" y="472" width="200" height="25" as="geometry" />
        </mxCell>
        <mxCell id="HZBKHrXU-gOTQcwhLFMI-18" value="tstaebecam" style="rounded=1;whiteSpace=wrap;html=1;" vertex="1" parent="1">
          <mxGeometry x="180" y="513" width="200" height="25" as="geometry" />
        </mxCell>
        <mxCell id="HZBKHrXU-gOTQcwhLFMI-19" value="dnrodocumento" style="rounded=1;whiteSpace=wrap;html=1;" vertex="1" parent="1">
          <mxGeometry x="181" y="554" width="200" height="25" as="geometry" />
        </mxCell>
        <mxCell id="HZBKHrXU-gOTQcwhLFMI-22" value="dnrodocumentomto" style="rounded=1;whiteSpace=wrap;html=1;" vertex="1" parent="1">
          <mxGeometry x="181" y="593" width="200" height="25" as="geometry" />
        </mxCell>
        <mxCell id="HZBKHrXU-gOTQcwhLFMI-24" value="dstatusf" style="rounded=1;whiteSpace=wrap;html=1;" vertex="1" parent="1">
          <mxGeometry x="180" y="632" width="200" height="25" as="geometry" />
        </mxCell>
        <mxCell id="HZBKHrXU-gOTQcwhLFMI-26" value="dtiempoactividadzona" style="rounded=1;whiteSpace=wrap;html=1;" vertex="1" parent="1">
          <mxGeometry x="179" y="671" width="200" height="25" as="geometry" />
        </mxCell>
        <mxCell id="HZBKHrXU-gOTQcwhLFMI-28" value="dletsrangoscomision" style="rounded=1;whiteSpace=wrap;html=1;" vertex="1" parent="1">
          <mxGeometry x="178" y="710" width="200" height="25" as="geometry" />
        </mxCell>
        <mxCell id="HZBKHrXU-gOTQcwhLFMI-30" value="dgeografia" style="rounded=1;whiteSpace=wrap;html=1;" vertex="1" parent="1">
          <mxGeometry x="179" y="749" width="200" height="25" as="geometry" />
        </mxCell>
        <mxCell id="HZBKHrXU-gOTQcwhLFMI-32" value="dgeografiacampana" style="rounded=1;whiteSpace=wrap;html=1;" vertex="1" parent="1">
          <mxGeometry x="178" y="791" width="200" height="25" as="geometry" />
        </mxCell>
        <mxCell id="HZBKHrXU-gOTQcwhLFMI-34" value="dtiempocampana" style="rounded=1;whiteSpace=wrap;html=1;" vertex="1" parent="1">
          <mxGeometry x="179" y="833" width="200" height="25" as="geometry" />
        </mxCell>
        <mxCell id="HZBKHrXU-gOTQcwhLFMI-36" value="dtiempodiacampana" style="rounded=1;whiteSpace=wrap;html=1;" vertex="1" parent="1">
          <mxGeometry x="180" y="875" width="200" height="25" as="geometry" />
        </mxCell>
        <mxCell id="HZBKHrXU-gOTQcwhLFMI-38" value="dseccionlets" style="rounded=1;whiteSpace=wrap;html=1;" vertex="1" parent="1">
          <mxGeometry x="181" y="917" width="200" height="25" as="geometry" />
        </mxCell>
        <mxCell id="HZBKHrXU-gOTQcwhLFMI-40" value="fvtazoncam" style="rounded=1;whiteSpace=wrap;html=1;" vertex="1" parent="1">
          <mxGeometry x="180" y="965" width="200" height="25" as="geometry" />
        </mxCell>
        <mxCell id="HZBKHrXU-gOTQcwhLFMI-50" value="fingresosconsultoraportal" style="rounded=1;whiteSpace=wrap;html=1;" vertex="1" parent="1">
          <mxGeometry x="181" y="1370" width="200" height="25" as="geometry" />
        </mxCell>
        <mxCell id="HZBKHrXU-gOTQcwhLFMI-51" style="edgeStyle=none;rounded=0;orthogonalLoop=1;jettySize=auto;html=1;exitX=0.25;exitY=0;exitDx=0;exitDy=0;" edge="1" parent="1" source="N2-1pm0XsO8ft6QqIfaM-1" target="N2-1pm0XsO8ft6QqIfaM-1">
          <mxGeometry relative="1" as="geometry" />
        </mxCell>
        <mxCell id="HZBKHrXU-gOTQcwhLFMI-52" value="fofertafinalconsultora" style="rounded=1;whiteSpace=wrap;html=1;" vertex="1" parent="1">
          <mxGeometry x="181" y="1414" width="200" height="25" as="geometry" />
        </mxCell>
        <mxCell id="HZBKHrXU-gOTQcwhLFMI-53" value="fpedidowebdetalle" style="rounded=1;whiteSpace=wrap;html=1;" vertex="1" parent="1">
          <mxGeometry x="181" y="1460" width="200" height="25" as="geometry" />
        </mxCell>
        <mxCell id="HZBKHrXU-gOTQcwhLFMI-54" value="gestionapostulante" style="rounded=1;whiteSpace=wrap;html=1;" vertex="1" parent="1">
          <mxGeometry x="180" y="1504" width="200" height="25" as="geometry" />
        </mxCell>
        <mxCell id="HZBKHrXU-gOTQcwhLFMI-55" style="edgeStyle=none;rounded=0;orthogonalLoop=1;jettySize=auto;html=1;exitX=0.25;exitY=0;exitDx=0;exitDy=0;" edge="1" parent="1" source="HZBKHrXU-gOTQcwhLFMI-53" target="HZBKHrXU-gOTQcwhLFMI-53">
          <mxGeometry relative="1" as="geometry" />
        </mxCell>
        <mxCell id="HZBKHrXU-gOTQcwhLFMI-56" value="dsolicitudcliente" style="rounded=1;whiteSpace=wrap;html=1;" vertex="1" parent="1">
          <mxGeometry x="180" y="1548" width="200" height="25" as="geometry" />
        </mxCell>
        <mxCell id="HZBKHrXU-gOTQcwhLFMI-57" value="fsolicitudclientedetalle" style="rounded=1;whiteSpace=wrap;html=1;" vertex="1" parent="1">
          <mxGeometry x="180" y="1594" width="200" height="25" as="geometry" />
        </mxCell>
        <mxCell id="HZBKHrXU-gOTQcwhLFMI-58" value="fdetresultadoencuesta" style="rounded=1;whiteSpace=wrap;html=1;" vertex="1" parent="1">
          <mxGeometry x="179" y="1638" width="200" height="25" as="geometry" />
        </mxCell>
        <mxCell id="HZBKHrXU-gOTQcwhLFMI-59" style="edgeStyle=none;rounded=0;orthogonalLoop=1;jettySize=auto;html=1;exitX=0.25;exitY=0;exitDx=0;exitDy=0;" edge="1" parent="1" source="HZBKHrXU-gOTQcwhLFMI-57" target="HZBKHrXU-gOTQcwhLFMI-57">
          <mxGeometry relative="1" as="geometry" />
        </mxCell>
        <mxCell id="HZBKHrXU-gOTQcwhLFMI-60" value="fcompdigcon" style="rounded=1;whiteSpace=wrap;html=1;" vertex="1" parent="1">
          <mxGeometry x="179" y="1680" width="200" height="25" as="geometry" />
        </mxCell>
        <mxCell id="HZBKHrXU-gOTQcwhLFMI-61" value="flogappsocia" style="rounded=1;whiteSpace=wrap;html=1;" vertex="1" parent="1">
          <mxGeometry x="179" y="1726" width="200" height="25" as="geometry" />
        </mxCell>
        <mxCell id="HZBKHrXU-gOTQcwhLFMI-62" value="fpedidoip" style="rounded=1;whiteSpace=wrap;html=1;" vertex="1" parent="1">
          <mxGeometry x="178" y="1770" width="200" height="25" as="geometry" />
        </mxCell>
        <mxCell id="HZBKHrXU-gOTQcwhLFMI-63" style="edgeStyle=none;rounded=0;orthogonalLoop=1;jettySize=auto;html=1;exitX=0.25;exitY=0;exitDx=0;exitDy=0;" edge="1" parent="1" source="HZBKHrXU-gOTQcwhLFMI-61" target="HZBKHrXU-gOTQcwhLFMI-61">
          <mxGeometry relative="1" as="geometry" />
        </mxCell>
        <mxCell id="HZBKHrXU-gOTQcwhLFMI-64" value="ffaltantevirtual" style="rounded=1;whiteSpace=wrap;html=1;" vertex="1" parent="1">
          <mxGeometry x="178" y="1814" width="200" height="25" as="geometry" />
        </mxCell>
        <mxCell id="HZBKHrXU-gOTQcwhLFMI-65" value="ddescomercialtactica" style="rounded=1;whiteSpace=wrap;html=1;" vertex="1" parent="1">
          <mxGeometry x="178" y="1860" width="200" height="25" as="geometry" />
        </mxCell>
        <mxCell id="HZBKHrXU-gOTQcwhLFMI-66" value="dcomisioncae" style="rounded=1;whiteSpace=wrap;html=1;" vertex="1" parent="1">
          <mxGeometry x="177" y="1904" width="200" height="25" as="geometry" />
        </mxCell>
        <mxCell id="HZBKHrXU-gOTQcwhLFMI-67" style="edgeStyle=none;rounded=0;orthogonalLoop=1;jettySize=auto;html=1;exitX=0.25;exitY=0;exitDx=0;exitDy=0;" edge="1" parent="1" source="HZBKHrXU-gOTQcwhLFMI-65" target="HZBKHrXU-gOTQcwhLFMI-65">
          <mxGeometry relative="1" as="geometry" />
        </mxCell>
        <mxCell id="HZBKHrXU-gOTQcwhLFMI-82" value="dcostoproductocampana" style="rounded=1;whiteSpace=wrap;html=1;" vertex="1" parent="1">
          <mxGeometry x="179" y="-38" width="200" height="25" as="geometry" />
        </mxCell>
      </root>
    </mxGraphModel>
  </diagram>
</mxfile>
